<?xml version="1.0" encoding="UTF-8" standalone="no"?>
<!-- Created with Inkscape (http://www.inkscape.org/) -->

<svg
   xmlns:dc="http://purl.org/dc/elements/1.1/"
   xmlns:cc="http://creativecommons.org/ns#"
   xmlns:rdf="http://www.w3.org/1999/02/22-rdf-syntax-ns#"
   xmlns:svg="http://www.w3.org/2000/svg"
   xmlns="http://www.w3.org/2000/svg"
   xmlns:sodipodi="http://sodipodi.sourceforge.net/DTD/sodipodi-0.dtd"
   xmlns:inkscape="http://www.inkscape.org/namespaces/inkscape"
   width="87.233597mm"
   height="87.233597mm"
   viewBox="0 0 87.233597 87.233597"
   version="1.1"
   id="svg8"
   inkscape:version="0.92.2 5c3e80d, 2017-08-06"
   sodipodi:docname="logo 3.02.41 PM.svg">
  <defs
     id="defs2" />
  <sodipodi:namedview
     id="base"
     pagecolor="#ffffff"
     bordercolor="#666666"
     borderopacity="1.0"
     inkscape:pageopacity="0.0"
     inkscape:pageshadow="2"
     inkscape:zoom="0.70710678"
     inkscape:cx="-146.5856"
     inkscape:cy="167.52728"
     inkscape:document-units="mm"
     inkscape:current-layer="layer1"
     showgrid="false"
     inkscape:window-width="1280"
     inkscape:window-height="691"
     inkscape:window-x="0"
     inkscape:window-y="1"
     inkscape:window-maximized="1" />
  <metadata
     id="metadata5">
    <rdf:RDF>
      <cc:Work
         rdf:about="">
        <dc:format>image/svg+xml</dc:format>
        <dc:type
           rdf:resource="http://purl.org/dc/dcmitype/StillImage" />
        <dc:title />
      </cc:Work>
    </rdf:RDF>
  </metadata>
  <g
     inkscape:label="Layer 1"
     inkscape:groupmode="layer"
     id="layer1"
     transform="translate(-109.0286,-164.43342)">
    <circle
       style="opacity:1;fill:#8bbb02;fill-opacity:1;stroke:none;stroke-width:3.20629478;stroke-linecap:round;stroke-miterlimit:4;stroke-dasharray:none;stroke-opacity:1"
       id="path14"
       cx="152.6454"
       cy="208.05022"
       r="42.013653" />
    <path
       style="opacity:1;fill:#ffffff;fill-opacity:1;stroke:none;stroke-width:1;stroke-linecap:round;stroke-miterlimit:4;stroke-dasharray:none;stroke-opacity:1"
       d="m 153.02118,173.79456 c -0.52081,0 -0.94,0.56052 -0.94,1.25677 v 16.53646 4.72942 0.42944 h 0.0171 a 7.8540635,7.1061653 0 0 0 4.27054,5.89111 v 38.60126 c 0,1.86888 1.50455,3.37344 3.37344,3.37344 1.86888,0 3.37343,-1.50456 3.37343,-3.37344 v -38.43383 a 7.8540635,7.1061653 0 0 0 4.65036,-6.05854 h 0.0233 v -0.42944 -4.72426 c 10e-6,-0.002 5.2e-4,-0.003 5.2e-4,-0.005 v -16.53646 c 0,-0.69625 -0.4192,-1.25677 -0.94,-1.25677 h -0.36432 c -0.52081,0 -0.93999,0.56052 -0.93999,1.25677 v 12.63799 h -2.24379 v -12.63799 c 0,-0.69625 -0.41919,-1.25677 -0.94,-1.25677 h -0.3638 c -0.52081,0 -0.93999,0.56052 -0.93999,1.25677 v 12.63799 h -2.24431 v -12.63799 c 0,-0.69625 -0.4197,-1.25677 -0.94051,-1.25677 h -0.3638 c -0.5208,0 -0.94,0.56052 -0.94,1.25677 v 12.63799 h -2.24379 v -12.63799 c 0,-0.69625 -0.41918,-1.25677 -0.93999,-1.25677 z"
       id="path849"
       inkscape:connector-curvature="0" />
    <path
       style="opacity:1;fill:#ffffff;fill-opacity:1;stroke:none;stroke-width:1;stroke-linecap:round;stroke-miterlimit:4;stroke-dasharray:none;stroke-opacity:1"
       d="m 146.67114,173.79456 c -13.80735,7.5598 -10.49721,25.96252 -10.57764,35.98333 h 4.21472 v 31.22342 c 0,1.75895 1.41605,3.175 3.175,3.175 1.75895,0 3.175,-1.41605 3.175,-3.175 v -31.22342 h 0.0129 z"
       id="rect902"
       inkscape:connector-curvature="0"
       sodipodi:nodetypes="cccsssccc" />
  </g>
</svg>
